<svg width="26" height="26" viewBox="0 0 26 26" fill="none" xmlns="http://www.w3.org/2000/svg">
<path fill-rule="evenodd" clip-rule="evenodd" d="M8.31995 18.7509C11.9529 18.2202 14.4543 18.2658 18.092 18.7695C18.3555 18.8077 18.5962 18.9399 18.7698 19.1417C18.9433 19.3436 19.038 19.6014 19.0362 19.8676C19.0362 20.1223 18.9487 20.3697 18.7905 20.5629C18.5148 20.8997 18.2324 21.231 17.9434 21.5564H19.3451C19.4332 21.4513 19.5219 21.3441 19.6116 21.2353C19.9264 20.8493 20.0981 20.3663 20.0977 19.8681C20.0977 18.7934 19.3133 17.8672 18.2375 17.7186C14.5138 17.2032 11.911 17.1539 8.16657 17.7011C7.0796 17.8598 6.29834 18.8003 6.29834 19.8825C6.29834 20.3628 6.45491 20.8378 6.7516 21.2226C6.83917 21.3362 6.92568 21.4476 7.01166 21.557H8.37939C8.11053 21.2351 7.84829 20.9077 7.59283 20.5751C7.44102 20.376 7.35912 20.1323 7.35983 19.8819C7.35983 19.3103 7.77063 18.831 8.31995 18.7509ZM13.198 13.5952C13.6162 13.5952 14.0303 13.5129 14.4167 13.3528C14.803 13.1928 15.1541 12.9582 15.4498 12.6625C15.7455 12.3668 15.9801 12.0158 16.1401 11.6294C16.3001 11.243 16.3825 10.829 16.3825 10.4108C16.3825 9.99257 16.3001 9.57847 16.1401 9.19212C15.9801 8.80576 15.7455 8.4547 15.4498 8.159C15.1541 7.86329 14.803 7.62873 14.4167 7.46869C14.0303 7.30866 13.6162 7.22629 13.198 7.22629C12.3535 7.22629 11.5435 7.56179 10.9463 8.159C10.3491 8.7562 10.0136 9.56619 10.0136 10.4108C10.0136 11.2553 10.3491 12.0653 10.9463 12.6625C11.5435 13.2597 12.3535 13.5952 13.198 13.5952ZM13.198 14.6567C14.3241 14.6567 15.4041 14.2094 16.2004 13.4131C16.9967 12.6168 17.444 11.5369 17.444 10.4108C17.444 9.28466 16.9967 8.20468 16.2004 7.40841C15.4041 6.61214 14.3241 6.16479 13.198 6.16479C12.0719 6.16479 10.992 6.61214 10.1957 7.40841C9.39941 8.20468 8.95207 9.28466 8.95207 10.4108C8.95207 11.5369 9.39941 12.6168 10.1957 13.4131C10.992 14.2094 12.0719 14.6567 13.198 14.6567Z" fill="#A0A0A0"/>
<path fill-rule="evenodd" clip-rule="evenodd" d="M13.1979 22.6179C18.4741 22.6179 22.7514 18.3407 22.7514 13.0645C22.7514 7.78836 18.4741 3.51108 13.1979 3.51108C7.92178 3.51108 3.6445 7.78836 3.6445 13.0645C3.6445 18.3407 7.92178 22.6179 13.1979 22.6179ZM13.1979 23.6794C19.0605 23.6794 23.8128 18.9271 23.8128 13.0645C23.8128 7.20189 19.0605 2.44958 13.1979 2.44958C7.33531 2.44958 2.58301 7.20189 2.58301 13.0645C2.58301 18.9271 7.33531 23.6794 13.1979 23.6794Z" fill="#A0A0A0"/>
</svg>
