<svg width="42" height="42" viewBox="0 0 42 42" fill="none" xmlns="http://www.w3.org/2000/svg">
<path d="M4.19995 21C4.19995 16.5444 5.96995 12.2712 9.12056 9.1206C12.2712 5.96999 16.5443 4.2 21 4.2C25.4556 4.2 29.7287 5.96999 32.8793 9.1206C36.03 12.2712 37.7999 16.5444 37.7999 21C37.7999 25.4556 36.03 29.7288 32.8793 32.8794C29.7287 36.03 25.4556 37.8 21 37.8C16.5443 37.8 12.2712 36.03 9.12056 32.8794C5.96995 29.7288 4.19995 25.4556 4.19995 21ZM25.1118 13.02C25.172 12.8929 25.206 12.7551 25.2119 12.6146C25.2178 12.4741 25.1955 12.3339 25.1462 12.2022C25.0969 12.0705 25.0216 11.9501 24.9249 11.8481C24.8282 11.746 24.7119 11.6644 24.5831 11.6082C24.4542 11.5519 24.3154 11.5221 24.1748 11.5205C24.0342 11.5189 23.8947 11.5456 23.7646 11.5989C23.6345 11.6522 23.5164 11.7311 23.4174 11.831C23.3184 11.9308 23.2404 12.0495 23.1882 12.18L15.8382 28.98C15.778 29.1071 15.7439 29.2449 15.738 29.3854C15.7321 29.5259 15.7544 29.6661 15.8037 29.7978C15.853 29.9295 15.9283 30.0499 16.025 30.1519C16.1217 30.254 16.238 30.3355 16.3668 30.3918C16.4957 30.4481 16.6345 30.4779 16.7751 30.4795C16.9157 30.4811 17.0552 30.4544 17.1853 30.4011C17.3154 30.3478 17.4335 30.2689 17.5325 30.169C17.6315 30.0692 17.7095 29.9505 17.7618 29.82L25.1118 13.02ZM14.3934 16.0566C14.2958 15.9588 14.1799 15.8812 14.0524 15.8283C13.9248 15.7754 13.7881 15.7481 13.65 15.7481C13.5118 15.7481 13.3751 15.7754 13.2475 15.8283C13.12 15.8812 13.0041 15.9588 12.9066 16.0566L8.70655 20.2566C8.60877 20.3541 8.53119 20.47 8.47825 20.5976C8.42532 20.7251 8.39807 20.8619 8.39807 21C8.39807 21.1381 8.42532 21.2749 8.47825 21.4024C8.53119 21.53 8.60877 21.6459 8.70655 21.7434L12.9066 25.9434C13.1037 26.1406 13.3711 26.2513 13.65 26.2513C13.9288 26.2513 14.1962 26.1406 14.3934 25.9434C14.5905 25.7462 14.7013 25.4788 14.7013 25.2C14.7013 24.9212 14.5905 24.6538 14.3934 24.4566L10.9347 21L14.3934 17.5434C14.4911 17.4459 14.5687 17.33 14.6216 17.2024C14.6746 17.0749 14.7018 16.9381 14.7018 16.8C14.7018 16.6619 14.6746 16.5251 14.6216 16.3976C14.5687 16.27 14.4911 16.1541 14.3934 16.0566ZM27.6066 17.5434L31.0653 21L27.6066 24.4566C27.4094 24.6538 27.2986 24.9212 27.2986 25.2C27.2986 25.4788 27.4094 25.7462 27.6066 25.9434C27.8037 26.1406 28.0711 26.2513 28.35 26.2513C28.6288 26.2513 28.8962 26.1406 29.0933 25.9434L33.2934 21.7434C33.3911 21.6459 33.4687 21.53 33.5216 21.4024C33.5746 21.2749 33.6018 21.1381 33.6018 21C33.6018 20.8619 33.5746 20.7251 33.5216 20.5976C33.4687 20.47 33.3911 20.3541 33.2934 20.2566L29.0933 16.0566C28.8962 15.8594 28.6288 15.7487 28.35 15.7487C28.0711 15.7487 27.8037 15.8594 27.6066 16.0566C27.4094 16.2538 27.2986 16.5212 27.2986 16.8C27.2986 17.0788 27.4094 17.3462 27.6066 17.5434Z" fill="black"/>
</svg>
