<svg width="335" height="49" viewBox="0 0 335 49" fill="none" xmlns="http://www.w3.org/2000/svg">
<g clip-path="url(#clip0_981_639)">
<path d="M109.998 1.63951V27.7397C109.998 33.5066 113.212 36.9118 118.791 36.9118C125.032 36.9118 128.62 33.1283 128.62 25.8464V1.63951H140.252V46.5554H128.628V41.352C125.888 45.6071 121.442 47.6883 115.297 47.6883C104.895 47.6915 98.3719 40.1265 98.3719 29.1563V1.63951H109.998ZM234.916 0.789678C248.156 0.815767 257.495 11.422 257.463 23.9152C257.466 25.1505 257.369 26.3841 257.174 27.6041L222.946 27.5401C224.258 32.9313 228.695 36.8166 235.41 36.8309C239.475 36.8309 243.828 35.3334 246.481 31.9341L254.414 38.2932C250.335 44.0548 243.14 47.4457 235.485 47.4307C221.971 47.385 211.588 37.247 211.611 24.103C211.637 11.5257 220.639 0.76359 234.916 0.789678V0.789678ZM308.721 0.789678C315.812 0.789678 319.879 2.9635 322.62 7.12657L323.709 1.63364H334.344V46.5554H323.709L322.336 41.9299C319.217 45.3351 315.338 47.4222 308.721 47.4222C298.508 47.4078 286.876 38.4236 286.876 24.4298C286.876 10.3407 298.317 0.789678 308.721 0.789678V0.789678ZM70.4181 0.789678C83.75 0.789678 94.3412 11.1964 94.3412 24.0515C94.3412 36.8166 83.75 47.4078 70.4181 47.4078C57.1788 47.4078 46.5902 36.8048 46.5902 24.0515C46.5902 11.1898 57.1788 0.789678 70.4181 0.789678V0.789678ZM190.021 0.503357C197.519 0.503357 204.162 3.82507 207.769 9.99369L197.525 15.4136C196.007 12.3756 193.16 10.6674 189.552 10.6674C186.044 10.6674 184.331 11.9014 184.331 13.9885C184.331 21.0128 208.819 16.553 208.819 33.3566C208.819 42.0897 201.702 47.402 190.218 47.402C180.441 47.3935 173.607 44.167 170.193 36.7644L180.531 31.353C182.239 35.0562 185.655 37.2385 190.497 37.2385C194.958 37.2385 196.666 35.8167 196.666 33.8216C196.666 26.5951 172.179 30.9747 172.179 14.4542C172.179 5.34277 180.152 0.503357 190.021 0.503357V0.503357ZM24.2395 0.694455C28.2203 0.666602 32.1454 1.62964 35.6612 3.49678C39.177 5.36393 42.173 8.07651 44.3792 11.3901L34.4525 17.1485C33.304 15.507 31.7752 14.168 29.9967 13.2457C28.2182 12.3235 26.2429 11.8455 24.2395 11.8525C17.4317 11.8525 11.8527 17.5267 11.8527 24.0515C11.8527 30.5755 17.4317 36.2498 24.2395 36.2498C26.3373 36.2635 28.4035 35.7393 30.241 34.7272C32.0785 33.7151 33.626 32.2489 34.7356 30.4686L44.5644 36.3307C42.3852 39.7413 39.3779 42.5448 35.823 44.4798C32.268 46.4148 28.2811 47.4182 24.2337 47.3967C11.0003 47.4078 0.411621 36.8048 0.411621 24.0515C0.411621 11.0985 11.0003 0.694455 24.2395 0.694455ZM170.124 0.48053L167.979 11.3353C167.584 11.2922 167.186 11.2701 166.788 11.2688C160.55 11.2831 156.963 15.0725 156.98 22.3518L157.044 46.5521L145.415 46.5782L145.316 1.6656L156.945 1.63951V6.84286C159.654 2.61652 164.054 0.529446 170.124 0.48053V0.48053ZM286.983 0.512488L284.827 11.3555C284.431 11.3138 284.034 11.2916 283.636 11.289C277.403 11.289 273.807 15.0699 273.807 22.3518V46.5554H262.178V1.6369L273.807 1.6369V6.8396C276.527 2.62174 280.921 0.543794 286.983 0.511836V0.512488ZM70.4181 11.9477C63.611 11.9477 58.0319 17.622 58.0319 24.0515C58.0319 30.5755 63.611 36.2498 70.4181 36.2498C77.3328 36.2498 82.9001 30.5755 82.9001 24.0515C82.9001 17.6226 77.3211 11.9477 70.4181 11.9477ZM310.71 11.9523C309.077 11.9583 307.462 12.286 305.956 12.9165C304.45 13.547 303.084 14.468 301.934 15.6268C300.784 16.7853 299.873 18.159 299.254 19.6694C298.635 21.1799 298.32 22.7974 298.326 24.4298C298.326 30.6714 303.905 36.2498 310.716 36.2498C317.61 36.2498 323.186 30.6708 323.186 24.3345C323.173 21.0381 321.851 17.8819 319.512 15.5598C317.172 13.2378 314.006 11.9402 310.709 11.9523H310.71ZM234.804 11.3816C229.412 11.3816 225.059 14.5787 223.347 19.3973L245.756 19.4377C245.103 14.899 240.382 11.3894 234.804 11.3816Z" fill="#4D4D4D"/>
</g>
<defs>
<clipPath id="clip0_981_639">
<rect width="333.932" height="47.6115" fill="white" transform="translate(0.411621 0.48053)"/>
</clipPath>
</defs>
</svg>
