<svg width="83" height="75" viewBox="0 0 83 75" fill="none" xmlns="http://www.w3.org/2000/svg">
<path d="M6.01175 38.9958C6.01175 38.9958 9.84222 27.3711 17.8419 27.3711C25.8415 27.3711 19.8422 36.8711 28.8422 36.8711C37.8422 36.8711 37.8422 24.8711 42.8422 24.3711C47.8422 23.8711 48.8422 36.8711 56.8422 36.8711C64.8422 36.8711 58.8422 27.3711 63.8422 27.3711C68.8422 27.3711 76.8422 35.3711 76.8422 35.3711" stroke="#FEA31B" stroke-width="12" stroke-linecap="round" stroke-linejoin="round"/>
<path d="M2.01175 41.3669C2.01175 41.3669 5.84222 29.7423 13.8419 29.7423C21.8415 29.7423 15.8422 39.2422 24.8422 39.2422C33.8422 39.2422 33.8422 27.2422 38.8422 26.7422C43.8422 26.2422 44.8422 39.2422 52.8422 39.2422C60.8422 39.2422 54.8422 29.7423 59.8422 29.7423C64.8422 29.7423 72.8422 37.7422 72.8422 37.7422" stroke="black" stroke-linecap="round" stroke-linejoin="round"/>
</svg>
