<svg width="40" height="40" viewBox="0 0 40 40" fill="none" xmlns="http://www.w3.org/2000/svg">
<path d="M15.8333 33.8477C15.8333 31.3252 14.2942 29.2257 12.0833 28.2106V21.4584C13.552 22.2966 15.2629 22.7734 17.0833 22.7734H24.5833C27.3411 22.7734 29.5833 24.9806 29.5833 27.6953V28.2106C27.3723 29.2257 25.8333 31.3252 25.8333 33.8477C25.8333 37.2453 28.6301 40 32.0833 40C35.5364 40 38.3333 37.2453 38.3333 33.8477C38.3333 31.3252 36.7942 29.2257 34.5833 28.2106V27.6953C34.5833 22.2582 30.1067 17.8516 24.5833 17.8516H17.0833C14.3254 17.8516 12.0833 15.6444 12.0833 12.9297V12.4144C14.2942 11.4685 15.8333 9.2998 15.8333 6.77734C15.8333 3.37817 13.0364 0.625 9.58325 0.625C6.13169 0.625 3.33325 3.37817 3.33325 6.77734C3.33325 9.2998 4.87622 11.4685 7.08325 12.4144V28.2106C4.87622 29.2257 3.33325 31.3252 3.33325 33.8477C3.33325 37.2453 6.13169 40 9.58325 40C13.0364 40 15.8333 37.2453 15.8333 33.8477ZM9.58325 32.002C10.6184 32.002 11.4583 32.8287 11.4583 33.8477C11.4583 34.8666 10.6184 35.6934 9.58325 35.6934C8.5481 35.6934 7.70825 34.8666 7.70825 33.8477C7.70825 32.8287 8.5481 32.002 9.58325 32.002ZM32.0833 35.6934C31.0442 35.6934 30.2083 34.8666 30.2083 33.8477C30.2083 32.8287 31.0442 32.002 32.0833 32.002C33.1223 32.002 33.9583 32.8287 33.9583 33.8477C33.9583 34.8666 33.1223 35.6934 32.0833 35.6934ZM9.58325 4.93164C10.6184 4.93164 11.4583 5.75452 11.4583 6.77734C11.4583 7.80017 10.6184 8.62305 9.58325 8.62305C8.5481 8.62305 7.70825 7.80017 7.70825 6.77734C7.70825 5.75452 8.5481 4.93164 9.58325 4.93164Z" fill="#DDF247"/>
</svg>
