<svg width="37" height="41" viewBox="0 0 37 41" fill="none" xmlns="http://www.w3.org/2000/svg">
<path d="M30.5279 28.8318C28.2101 28.8318 26.2809 30.2239 25.3481 32.2238L22.6133 32.2238C21.3625 32.2238 20.352 31.2133 20.352 29.9625L20.352 22.0125L25.8993 22.0125L25.8993 17.8079L20.352 17.8079L20.352 10.1759C20.352 8.92512 21.3625 7.9146 22.6133 7.9146L25.3481 7.9146C26.2809 9.91445 28.2101 11.3066 30.5279 11.3066C33.65 11.3066 36.1813 8.77672 36.1813 5.65327C36.1813 2.52982 33.65 -3.03822e-05 30.5279 -3.02458e-05C28.2101 -3.01444e-05 26.2809 1.3921 25.3481 3.39195L22.6133 3.39195C18.868 3.39195 15.8294 6.4306 15.8294 10.1759L15.8294 17.8079L10.8332 17.8079C9.96405 15.808 7.97126 14.4159 5.65341 14.4159C2.52996 14.4159 0.000105798 16.9458 0.000105934 20.0692C0.000106071 23.1927 2.52996 25.7225 5.65341 25.7225C7.97127 25.7225 9.96405 24.3304 10.8332 22.3305L15.8294 22.3305L15.8294 29.9625C15.8294 33.7092 18.868 36.7464 22.6133 36.7464L25.3481 36.7464C26.2809 38.7428 28.2101 40.1384 30.5279 40.1384C33.65 40.1384 36.1813 37.6072 36.1813 34.4851C36.1813 31.3617 33.65 28.8318 30.5279 28.8318ZM28.832 34.4851C28.832 33.5488 29.5916 32.7891 30.5279 32.7891C31.4643 32.7891 32.2239 33.5488 32.2239 34.4851C32.2239 35.4215 31.4643 36.1811 30.5279 36.1811C29.5916 36.1811 28.832 35.4215 28.832 34.4851ZM28.832 5.65327C28.832 4.71341 29.5916 3.95728 30.5279 3.95728C31.4643 3.95728 32.2239 4.71341 32.2239 5.65327C32.2239 6.59314 31.4643 7.34927 30.5279 7.34927C29.5916 7.34927 28.832 6.59314 28.832 5.65327ZM7.3494 20.0692C7.3494 21.0091 6.59327 21.7652 5.65341 21.7652C4.71355 21.7652 3.95742 21.0091 3.95742 20.0692C3.95742 19.1293 4.71355 18.3732 5.65341 18.3732C6.59327 18.3732 7.3494 19.1293 7.3494 20.0692Z" fill="#DDF247"/>
<path d="M31.0226 14.1332C27.8613 14.1332 25.2986 16.775 25.2986 20.0339C25.2986 23.2927 27.8613 25.9345 31.0226 25.9345C34.1839 25.9345 36.7466 23.2927 36.7466 20.0339C36.7466 16.775 34.1839 14.1332 31.0226 14.1332ZM31.0226 21.7843C30.0848 21.7843 29.3246 21.0006 29.3246 20.0339C29.3246 19.0671 30.0848 18.2834 31.0226 18.2834C31.9604 18.2834 32.7207 19.0671 32.7207 20.0339C32.7207 21.0006 31.9604 21.7843 31.0226 21.7843Z" fill="#DDF247"/>
</svg>
