<svg width="203" height="123" viewBox="0 0 203 123" fill="none" xmlns="http://www.w3.org/2000/svg">
<path fill-rule="evenodd" clip-rule="evenodd" d="M21.9027 6.63677L132.453 6.61121L128.544 24.874L199.309 24.8577L180.416 116.498L90.7365 116.519L95.6226 92.7117L3.00849 92.7331L21.9027 6.63677ZM107.152 25.4055L99.4028 25.4055L96.1023 44.2846C93.9498 40.4655 90.0753 38.52 84.4787 38.52C80.8194 38.52 77.5189 39.5288 74.5054 41.4023C71.4919 43.2758 69.1241 45.9419 67.4021 49.2565C65.6801 52.5712 64.8191 56.3182 64.8191 60.3534C64.8191 63.3798 65.3931 66.118 66.6846 68.5679C67.9761 71.0179 69.7699 72.8914 72.0659 74.2605C74.3619 75.6295 76.9449 76.2781 79.9584 76.2781C82.398 76.2781 84.6222 75.8457 86.6312 74.909C88.5685 73.9722 90.2188 72.6752 91.6538 71.0179L91.7255 75.8457L98.2548 75.8457L107.152 25.4055ZM88.2815 67.7032C86.3442 69.0723 84.12 69.7208 81.6087 69.7208C78.8822 69.7208 76.6579 68.8561 75.0794 67.0547C73.5009 65.2533 72.7116 62.6592 72.7116 59.3446C72.7116 57.0387 73.2139 54.7329 74.2184 52.5712C75.2229 50.4095 76.7297 48.608 78.6669 47.2389C80.5324 45.8698 82.7567 45.1493 85.3397 45.1493C88.0662 45.1493 90.2188 46.086 91.7973 47.8154C93.3758 49.6168 94.2368 52.1388 94.2368 55.4535C94.2368 57.8314 93.6628 60.1372 92.6583 62.2989C91.6538 64.5327 90.147 66.3341 88.2815 67.7032ZM53.0212 40.3935C50.6534 39.1685 47.9269 38.52 44.7699 38.52C40.6083 38.52 36.9491 39.5288 33.8638 41.4023C30.7785 43.2758 28.4108 45.8698 26.7605 49.1124C25.1102 52.4271 24.321 56.0299 24.321 59.9931C24.321 63.1636 24.9667 65.9739 26.33 68.4238C27.6933 70.8738 29.6305 72.8193 32.2135 74.1884C34.7965 75.6295 37.7383 76.2781 41.1823 76.2781C45.5591 76.2781 49.2902 75.1972 52.4472 72.8914C55.5324 70.6576 57.6132 67.4871 58.6895 63.4518L50.9404 63.4518C49.9359 65.6136 48.7161 67.2709 47.2811 68.3517C45.8461 69.4326 43.8371 69.937 41.3258 69.937C38.4558 69.937 36.2316 69.0723 34.5813 67.1988C32.8593 65.3253 32.07 63.1636 32.07 60.5695C32.07 60.0651 32.07 59.6328 32.1418 59.2005L59.694 59.2005C60.1245 57.4711 60.3397 55.5255 60.3397 53.3638C60.3397 50.4815 59.694 47.8874 58.4742 45.6537C57.1827 43.4199 55.3889 41.6905 53.0212 40.3935ZM52.2319 53.3638L33.3615 53.3638C34.0073 50.8418 35.2988 48.7521 37.3078 47.1669C39.2451 45.5816 41.5411 44.789 44.1959 44.789C46.6354 44.789 48.6444 45.5095 50.0794 46.8066C51.5144 48.1036 52.3037 49.9771 52.3037 52.355C52.3037 52.6083 52.2791 52.8368 52.2587 53.0261C52.2442 53.16 52.2319 53.2743 52.2319 53.3638ZM134.77 73.9007L120.083 42.2453L136.309 41.893L145.658 62.3171L162.422 41.6261L178.37 41.4632L152.49 73.7196L168.032 106.859L151.618 107.026L141.602 85.21L123.64 107.312L107.785 107.474L134.77 73.9007Z" fill="#4D4D4D"/>
</svg>
