<svg width="26" height="26" viewBox="0 0 26 26" fill="none" xmlns="http://www.w3.org/2000/svg">
<path d="M11.6039 1.78979C10.7594 1.78979 9.94937 2.1253 9.35217 2.72251C8.75496 3.31971 8.41946 4.1297 8.41946 4.97427V17.7122C8.41946 18.5567 8.75496 19.3667 9.35217 19.9639C9.94937 20.5611 10.7594 20.8966 11.6039 20.8966H19.5667C20.4113 20.8966 21.2213 20.5611 21.8185 19.9639C22.4157 19.3667 22.7512 18.5567 22.7512 17.7122V8.95487H22.748V7.22569C22.7479 6.59271 22.4965 5.98566 22.049 5.53792L19.0015 2.48879C18.5537 2.04134 17.9467 1.78993 17.3137 1.78979H11.6023H11.6039ZM19.5667 19.3044H11.6039C11.1816 19.3044 10.7767 19.1367 10.478 18.8381C10.1794 18.5395 10.0117 18.1345 10.0117 17.7122V4.97427C10.0117 4.55198 10.1794 4.14699 10.478 3.84839C10.7767 3.54979 11.1816 3.38203 11.6039 3.38203H16.3806V5.77039C16.3806 6.40382 16.6323 7.01131 17.0802 7.45921C17.5281 7.90712 18.1356 8.15875 18.769 8.15875H21.1574V9.84811H21.159V17.7122C21.159 18.1345 20.9912 18.5395 20.6926 18.8381C20.394 19.1367 19.989 19.3044 19.5667 19.3044ZM20.8262 6.56651H18.7674C18.5563 6.56651 18.3538 6.48263 18.2045 6.33333C18.0552 6.18403 17.9713 5.98153 17.9713 5.77039V3.71163L20.8262 6.56651ZM5.23657 6.56651C5.23657 6.14422 5.40433 5.73923 5.70293 5.44063C6.00153 5.14202 6.40652 4.97427 6.82881 4.97427V17.7122C6.82881 18.979 7.33207 20.194 8.22788 21.0898C9.12368 21.9856 10.3387 22.4889 11.6055 22.4889H19.5667C19.5667 22.9112 19.399 23.3162 19.1004 23.6148C18.8018 23.9134 18.3968 24.0811 17.9745 24.0811H11.2712C9.67068 24.0811 8.13576 23.4453 7.00406 22.3136C5.87236 21.1819 5.23657 19.647 5.23657 18.0465V6.56651Z" fill="#A0A0A0"/>
</svg>
