<svg width="30" height="30" viewBox="0 0 30 30" fill="none" xmlns="http://www.w3.org/2000/svg">
<path d="M23.1376 10.3125C23.7626 10.3125 24.2626 9.8125 24.2626 9.1875V3.375C24.2626 2.75 23.7626 2.25 23.1376 2.25C22.5126 2.25 22.0126 2.75 22.0126 3.375V9.1875C22.0126 9.8 22.5251 10.3125 23.1376 10.3125Z" fill="white"/>
<path d="M15.0001 19.6875C14.3751 19.6875 13.8751 20.1875 13.8751 20.8125V26.625C13.8751 27.25 14.3751 27.75 15.0001 27.75C15.6251 27.75 16.1251 27.25 16.1251 26.625V20.8125C16.1251 20.2 15.6251 19.6875 15.0001 19.6875Z" fill="white"/>
<path d="M6.8626 10.3125C7.4876 10.3125 7.9876 9.8125 7.9876 9.1875V3.375C7.9876 2.75 7.4876 2.25 6.8626 2.25C6.2376 2.25 5.7376 2.75 5.7376 3.375V9.1875C5.7376 9.8 6.2376 10.3125 6.8626 10.3125Z" fill="white"/>
<path d="M9.1876 12.7125H4.5376C3.9126 12.7125 3.4126 13.2125 3.4126 13.8375C3.4126 14.4625 3.9126 14.9625 4.5376 14.9625H5.7376V26.625C5.7376 27.25 6.2376 27.75 6.8626 27.75C7.4876 27.75 7.9876 27.25 7.9876 26.625V14.9625H9.1876C9.8126 14.9625 10.3126 14.4625 10.3126 13.8375C10.3126 13.2125 9.8001 12.7125 9.1876 12.7125Z" fill="white"/>
<path d="M25.4626 12.7125H20.8126C20.1876 12.7125 19.6876 13.2125 19.6876 13.8375C19.6876 14.4625 20.1876 14.9625 20.8126 14.9625H22.0126V26.625C22.0126 27.25 22.5126 27.75 23.1376 27.75C23.7626 27.75 24.2626 27.25 24.2626 26.625V14.9625H25.4626C26.0876 14.9625 26.5876 14.4625 26.5876 13.8375C26.5876 13.2125 26.0876 12.7125 25.4626 12.7125Z" fill="white"/>
<path d="M17.3251 15.0375H16.1251V3.375C16.1251 2.75 15.6251 2.25 15.0001 2.25C14.3751 2.25 13.8751 2.75 13.8751 3.375V15.0375H12.6751C12.0501 15.0375 11.5501 15.5375 11.5501 16.1625C11.5501 16.7875 12.0501 17.2875 12.6751 17.2875H17.3251C17.9501 17.2875 18.4501 16.7875 18.4501 16.1625C18.4501 15.5375 17.9501 15.0375 17.3251 15.0375Z" fill="white"/>
</svg>
