<svg width="26" height="26" viewBox="0 0 26 26" fill="none" xmlns="http://www.w3.org/2000/svg">
<path d="M6.13479 18.8423L3.02515 21.9503C2.88013 22.1005 2.79988 22.3016 2.8017 22.5103C2.80351 22.719 2.88724 22.9187 3.03485 23.0663C3.18246 23.2139 3.38213 23.2977 3.59087 23.2995C3.79961 23.3013 4.00071 23.221 4.15086 23.076L7.2605 19.9664C9.29258 21.7074 11.92 22.5937 14.5915 22.4393C17.2629 22.2848 19.7707 21.1017 21.5887 19.1381C23.4066 17.1746 24.3933 14.5832 24.3418 11.9078C24.2903 9.23237 23.2046 6.68088 21.3124 4.78873C19.4203 2.89658 16.8688 1.81083 14.1934 1.75933C11.518 1.70784 8.9266 2.69458 6.96303 4.51251C4.99945 6.33045 3.81633 8.83826 3.6619 11.5097C3.50748 14.1812 4.39377 16.8086 6.13479 18.8407V18.8423ZM13.9941 20.8644C11.6715 20.8644 9.44404 19.9418 7.80172 18.2994C6.15941 16.6571 5.23677 14.4297 5.23677 12.1071C5.23677 9.78451 6.15941 7.55705 7.80172 5.91474C9.44404 4.27243 11.6715 3.34978 13.9941 3.34978C16.3167 3.34978 18.5441 4.27243 20.1864 5.91474C21.8287 7.55705 22.7514 9.78451 22.7514 12.1071C22.7514 14.4297 21.8287 16.6571 20.1864 18.2994C18.5441 19.9418 16.3167 20.8644 13.9941 20.8644Z" fill="#A0A0A0"/>
</svg>
