<svg width="26" height="26" viewBox="0 0 26 26" fill="none" xmlns="http://www.w3.org/2000/svg">
<path d="M10.5822 13.9324H8.23952C7.98876 14.6406 7.49575 15.2372 6.84761 15.617C6.19948 15.9968 5.43795 16.1352 4.69763 16.0078C3.95731 15.8804 3.28586 15.4954 2.80195 14.9208C2.31805 14.3462 2.05285 13.6191 2.05322 12.8678C2.0536 12.1166 2.31953 11.3898 2.804 10.8157C3.28848 10.2416 3.96032 9.85722 4.70077 9.73056C5.44122 9.6039 6.2026 9.74308 6.85036 10.1235C7.49812 10.5039 7.99053 11.1011 8.24058 11.8095H10.5822L14.2592 5.4405H17.6242C17.8742 4.73213 18.3666 4.13497 19.0144 3.75455C19.6621 3.37413 20.4235 3.23495 21.164 3.36161C21.9044 3.48827 22.5763 3.87261 23.0607 4.44671C23.5452 5.02081 23.8112 5.7477 23.8115 6.4989C23.8119 7.2501 23.5467 7.97726 23.0628 8.55184C22.5789 9.12642 21.9074 9.51144 21.1671 9.63884C20.4268 9.76624 19.6653 9.62782 19.0171 9.24805C18.369 8.86827 17.876 8.2716 17.6252 7.56348H15.4842L12.4207 12.8699L15.4853 18.1784H17.6252C17.8756 17.4702 18.3683 16.8732 19.0163 16.4931C19.6642 16.113 20.4257 15.9742 21.1661 16.1013C21.9065 16.2283 22.5781 16.613 23.0623 17.1873C23.5465 17.7617 23.8121 18.4887 23.8121 19.2399C23.8121 19.9911 23.5465 20.7181 23.0623 21.2925C22.5781 21.8668 21.9065 22.2515 21.1661 22.3785C20.4257 22.5055 19.6642 22.3667 19.0163 21.9866C18.3683 21.6065 17.8756 21.0096 17.6252 20.3014H14.2592L10.5822 13.9324ZM20.6282 18.1784C20.3467 18.1784 20.0767 18.2902 19.8776 18.4893C19.6785 18.6884 19.5667 18.9584 19.5667 19.2399C19.5667 19.5214 19.6785 19.7914 19.8776 19.9905C20.0767 20.1896 20.3467 20.3014 20.6282 20.3014C20.9097 20.3014 21.1797 20.1896 21.3788 19.9905C21.5778 19.7914 21.6897 19.5214 21.6897 19.2399C21.6897 18.9584 21.5778 18.6884 21.3788 18.4893C21.1797 18.2902 20.9097 18.1784 20.6282 18.1784ZM5.23656 11.8095C4.95503 11.8095 4.68504 11.9213 4.48597 12.1204C4.2869 12.3194 4.17507 12.5894 4.17507 12.8709C4.17507 13.1525 4.2869 13.4225 4.48597 13.6215C4.68504 13.8206 4.95503 13.9324 5.23656 13.9324C5.51808 13.9324 5.78808 13.8206 5.98715 13.6215C6.18622 13.4225 6.29805 13.1525 6.29805 12.8709C6.29805 12.5894 6.18622 12.3194 5.98715 12.1204C5.78808 11.9213 5.51808 11.8095 5.23656 11.8095ZM20.6282 5.4405C20.3467 5.4405 20.0767 5.55234 19.8776 5.75141C19.6785 5.95047 19.5667 6.22047 19.5667 6.50199C19.5667 6.78352 19.6785 7.05351 19.8776 7.25258C20.0767 7.45165 20.3467 7.56348 20.6282 7.56348C20.9097 7.56348 21.1797 7.45165 21.3788 7.25258C21.5778 7.05351 21.6897 6.78352 21.6897 6.50199C21.6897 6.22047 21.5778 5.95047 21.3788 5.75141C21.1797 5.55234 20.9097 5.4405 20.6282 5.4405Z" fill="#A0A0A0"/>
</svg>
